<svg xmlns="http://www.w3.org/2000/svg" width="43.365" height="43.365" viewBox="0 0 43.365 43.365">
    <path id="telegram" d="M21.683,8A21.683,21.683,0,1,0,43.365,29.683,21.683,21.683,0,0,0,21.683,8Zm10.05,14.746c-.326,3.429-1.738,11.749-2.457,15.589-.3,1.625-.9,2.17-1.482,2.223-1.259.116-2.215-.832-3.435-1.632-1.908-1.251-2.986-2.03-4.839-3.25-2.141-1.411-.753-2.186.467-3.453.319-.332,5.867-5.378,5.975-5.836a.442.442,0,0,0-.1-.383.5.5,0,0,0-.449-.044q-.287.065-9.146,6.045a4.116,4.116,0,0,1-2.351.869,15.469,15.469,0,0,1-3.371-.8C9.187,31.634,8.107,31.4,8.2,30.651q.073-.586,1.613-1.2,9.481-4.131,12.645-5.447c6.021-2.5,7.273-2.94,8.088-2.954a1.427,1.427,0,0,1,.84.252.914.914,0,0,1,.309.587A3.826,3.826,0,0,1,31.733,22.746Z" transform="translate(0 -8)"/>
</svg>
