<svg width="32" height="32" viewBox="0 0 32 32" fill="none" xmlns="http://www.w3.org/2000/svg">
<path d="M15.2101 2.01545C15.106 2.0264 14.7499 2.06476 14.4157 2.09215C11.9229 2.33869 9.22187 3.4454 7.23857 5.04519C6.5592 5.59307 5.95106 6.15738 5.8634 6.32174C5.75383 6.53541 5.77026 6.90797 5.89627 7.12164C6.09899 7.45584 6.53181 7.60377 6.89341 7.4668C6.96463 7.43941 7.24405 7.21478 7.5125 6.96823C9.30953 5.31365 11.375 4.29461 13.8405 3.83987C14.6075 3.69742 16.3497 3.64264 17.188 3.73029C21.4614 4.19599 25.176 6.78744 27.0442 10.6116C27.9044 12.3703 28.3043 14.0906 28.3043 16.052C28.3043 17.8271 28.0085 19.3392 27.3456 20.9116C26.1731 23.7113 24.0693 25.9302 21.3189 27.2725C20.3492 27.7436 19.4562 28.0505 18.4371 28.2641C17.7687 28.4011 17.6865 28.4285 17.4893 28.6093C17.3085 28.7791 17.2756 28.8503 17.2537 29.0805C17.2208 29.3927 17.2975 29.59 17.555 29.831C17.7852 30.0557 18.0043 30.0666 18.7878 29.9023C24.387 28.7298 28.7481 24.2537 29.7562 18.638C30.1397 16.5122 30.074 14.6275 29.5371 12.5237C29.285 11.5485 29.0385 10.8855 28.5235 9.84458C26.4744 5.67525 22.59 2.83726 17.9769 2.14146C17.303 2.04284 15.643 1.96614 15.2101 2.01545Z" fill="#000000"/>
<path d="M15.7688 9.15956C15.5496 9.20887 15.3579 9.37871 15.2428 9.62525C15.1661 9.77866 15.1552 10.1622 15.1552 12.3591V14.9177L15.0182 15.0492L14.8867 15.1862H12.3227C9.76957 15.1862 9.75861 15.1862 9.54494 15.3122C8.98611 15.63 9.00803 16.4682 9.58877 16.7421C9.75314 16.8188 10.0873 16.8298 12.3281 16.8298H14.8867L15.0182 16.9668L15.1552 17.0983V19.6514C15.1552 22.1004 15.1607 22.2099 15.2648 22.4181C15.5332 22.9386 16.1578 23.0317 16.5742 22.6154L16.7714 22.4181L16.7988 19.7609L16.8262 17.1092L16.9522 16.9832L17.0782 16.8572L19.7299 16.8298L22.3871 16.8024L22.5844 16.6052C22.9843 16.2052 22.9131 15.5916 22.4255 15.2958C22.2556 15.1917 22.1296 15.1862 19.6916 15.1862H17.133L16.9796 15.0547L16.8262 14.9232L16.7988 12.2934C16.7714 9.72387 16.7659 9.65812 16.6564 9.50472C16.4427 9.21982 16.092 9.08833 15.7688 9.15956Z" fill="#000000"/>
<path d="M3.40891 10.3101C3.06923 10.4142 2.87747 10.7429 2.53231 11.8387C2.31316 12.529 2.29673 12.7646 2.43369 13.0495C2.54327 13.2686 2.88843 13.4878 3.1295 13.4878C3.387 13.4878 3.75955 13.2686 3.8746 13.0495C3.9787 12.8468 4.38413 11.6524 4.48275 11.2579C4.57041 10.9292 4.37865 10.5512 4.03349 10.3759C3.77599 10.2499 3.66641 10.2334 3.40891 10.3101Z" fill="#000000"/>
<path d="M2.53773 16.9614C2.00081 17.1587 1.90219 17.4819 2.08299 18.5284C2.30214 19.7666 2.70209 21.0102 3.26092 22.1772C3.58964 22.8566 3.65539 22.9552 3.82523 23.0374C4.38406 23.3003 4.9922 22.9771 5.06343 22.3909C5.08534 22.1827 5.04151 22.0567 4.75662 21.4431C4.2197 20.309 3.89098 19.2187 3.68278 17.9312C3.628 17.6134 3.55677 17.3669 3.48555 17.2628C3.27188 16.9669 2.87741 16.8409 2.53773 16.9614Z" fill="#000000"/>
<path d="M6.68512 25.1575C6.48788 25.2342 6.26873 25.5739 6.24134 25.8369C6.19751 26.1821 6.33448 26.4067 6.81661 26.8121C8.58077 28.2969 10.3888 29.2118 12.7172 29.8145C13.8787 30.1103 14.1965 30.0829 14.4814 29.6556C14.6786 29.3597 14.695 29.1406 14.5416 28.8393C14.3663 28.4996 14.18 28.401 13.413 28.2421C11.479 27.8366 9.55598 26.9107 8.0055 25.6232C7.71512 25.3822 7.43571 25.1685 7.3864 25.1466C7.25491 25.0973 6.82209 25.1027 6.68512 25.1575Z" fill="#000000"/>
</svg>
