<svg width="32" height="32" viewBox="0 0 32 32" fill="none" xmlns="http://www.w3.org/2000/svg">
<path d="M25.2986 15.4487L8.42637 5.13756C8.28426 5.05071 8.12157 5.00328 7.95505 5.00016C7.78853 4.99705 7.62419 5.03835 7.47892 5.11981C7.33366 5.20128 7.21272 5.31998 7.12854 5.46369C7.04437 5.60741 7 5.77095 7 5.9375V26.5598C7 26.7264 7.04437 26.8899 7.12854 27.0336C7.21272 27.1774 7.33366 27.2961 7.47892 27.3775C7.62419 27.459 7.78853 27.5003 7.95505 27.4972C8.12157 27.4941 8.28426 27.4466 8.42637 27.3598L25.2986 17.0486C25.4357 16.9649 25.5489 16.8473 25.6274 16.7072C25.706 16.5672 25.7473 16.4093 25.7473 16.2487C25.7473 16.0881 25.706 15.9302 25.6274 15.7901C25.5489 15.65 25.4357 15.5325 25.2986 15.4487Z" stroke="#000000" stroke-width="1.5" stroke-linecap="round" stroke-linejoin="round"/>
</svg>
