<svg xmlns="http://www.w3.org/2000/svg" width="28" height="20" viewBox="0 0 30.135 27.875">
    <path d="M22.107,23.928a40.613,40.613,0,0,1-3.646,2.563c-.451.283-.9.556-1.407.86-.511-.3-.957-.577-1.407-.862A40.544,40.544,0,0,1,12,23.928C7.51,20.357,5,16.456,5,12.02,5,8.488,7.35,5.993,10.273,5.993a6.943,6.943,0,0,1,4.65,2.131l2.131,2.131,2.131-2.131a6.943,6.943,0,0,1,4.65-2.131c2.958,0,5.274,2.471,5.274,6.027,0,4.434-2.509,8.337-7,11.908ZM32.121,12.02c0-5.274-3.71-9.041-8.287-9.041a9.97,9.97,0,0,0-6.78,3.014,9.97,9.97,0,0,0-6.78-3.014c-4.52,0-8.287,3.767-8.287,9.041,0,10.547,11.3,16.574,15.068,18.834,3.767-2.26,15.068-8.287,15.068-18.834Z"
          transform="translate(-1.986 -2.979)"
          fill="#ff6363"
    />
</svg>
