<svg xmlns="http://www.w3.org/2000/svg" width="50.672" height="41.155" viewBox="0 0 50.672 41.155">
    <path id="twitter" d="M45.463,58.339c.032.45.032.9.032,1.35,0,13.729-10.449,29.548-29.548,29.548A29.348,29.348,0,0,1,0,84.575a21.484,21.484,0,0,0,2.508.129A20.8,20.8,0,0,0,15.4,80.266a10.4,10.4,0,0,1-9.71-7.2,13.1,13.1,0,0,0,1.961.161,10.984,10.984,0,0,0,2.733-.354A10.387,10.387,0,0,1,2.058,62.679v-.129a10.459,10.459,0,0,0,4.694,1.318,10.4,10.4,0,0,1-3.215-13.89A29.519,29.519,0,0,0,24.95,60.846a11.724,11.724,0,0,1-.257-2.379,10.4,10.4,0,0,1,17.973-7.106,20.447,20.447,0,0,0,6.591-2.508,10.357,10.357,0,0,1-4.566,5.723,20.819,20.819,0,0,0,5.98-1.608A22.324,22.324,0,0,1,45.463,58.339Z" transform="translate(0 -48.082)"/>
</svg>
