<svg xmlns="http://www.w3.org/2000/svg" width="61.674" height="43.365" viewBox="0 0 61.674 43.365">
    <path id="youtube" d="M75.318,70.785A7.749,7.749,0,0,0,69.866,65.3C65.056,64,45.77,64,45.77,64s-19.286,0-24.1,1.3a7.75,7.75,0,0,0-5.453,5.488c-1.289,4.841-1.289,14.941-1.289,14.941s0,10.1,1.289,14.941a7.634,7.634,0,0,0,5.453,5.4c4.81,1.3,24.1,1.3,24.1,1.3s19.286,0,24.1-1.3a7.634,7.634,0,0,0,5.453-5.4c1.289-4.841,1.289-14.941,1.289-14.941S76.607,75.626,75.318,70.785ZM39.462,94.9V76.556l16.119,9.17Z" transform="translate(-14.933 -64)"/>
</svg>
