<svg xmlns="http://www.w3.org/2000/svg" width="25.763" height="43.365" viewBox="0 0 25.763 43.365">
    <path id="tumblr" d="M33.47,40.68c-1.152,1.228-4.235,2.685-8.249,2.685-10.231,0-12.45-7.521-12.45-11.908V19.26H8.747a.849.849,0,0,1-.847-.847V12.654A1.434,1.434,0,0,1,8.857,11.3c5.251-1.846,6.9-6.437,7.14-9.918C16.065.449,16.548,0,17.361,0h6.005a.849.849,0,0,1,.847.847V10.6h7.03a.842.842,0,0,1,.847.838v6.92a.849.849,0,0,1-.847.847H24.179V30.491c0,2.9,2.007,4.54,5.759,3.032a1.785,1.785,0,0,1,1.076-.186.915.915,0,0,1,.627.669L33.5,39.452C33.656,39.875,33.783,40.35,33.47,40.68Z" transform="translate(-7.9 0)"/>
</svg>
