<svg xmlns="http://www.w3.org/2000/svg" width="44.083" height="44.083" viewBox="0 0 44.083 44.083">
    <path id="pinterest" d="M44.083,30.042A22.044,22.044,0,0,1,15.518,51.1a24.777,24.777,0,0,0,2.737-5.777c.267-1.031,1.369-5.244,1.369-5.244a5.9,5.9,0,0,0,5.048,2.533c6.648,0,11.438-6.115,11.438-13.714,0-7.279-5.946-12.727-13.589-12.727-9.51,0-14.567,6.381-14.567,13.34,0,3.235,1.724,7.261,4.471,8.541.418.2.64.107.738-.293.071-.3.444-1.8.613-2.5a.66.66,0,0,0-.151-.631A8.68,8.68,0,0,1,12,29.6a9.538,9.538,0,0,1,9.954-9.563c5.413,0,9.208,3.688,9.208,8.968,0,5.964-3.013,10.1-6.932,10.1a3.2,3.2,0,0,1-3.262-3.982c.622-2.622,1.822-5.448,1.822-7.341,0-1.689-.907-3.1-2.791-3.1-2.213,0-3.991,2.284-3.991,5.35a7.942,7.942,0,0,0,.658,3.271s-2.177,9.225-2.577,10.95a21.336,21.336,0,0,0-.08,6.328A22.044,22.044,0,1,1,44.083,30.042Z" transform="translate(0 -8)"/>
</svg>
