<svg xmlns="http://www.w3.org/2000/svg" width="44.969" height="44.959" viewBox="0 0 44.969 44.959">
    <path id="instagram" d="M22.414,42.778A11.527,11.527,0,1,0,33.941,54.3,11.509,11.509,0,0,0,22.414,42.778Zm0,19.021A7.494,7.494,0,1,1,29.908,54.3,7.508,7.508,0,0,1,22.414,61.8ZM37.1,42.306a2.689,2.689,0,1,1-2.689-2.689A2.682,2.682,0,0,1,37.1,42.306Zm7.634,2.729c-.171-3.6-.993-6.792-3.632-9.42s-5.819-3.451-9.42-3.632c-3.712-.211-14.837-.211-18.549,0-3.591.171-6.782.993-9.42,3.622S.264,41.423.083,45.025c-.211,3.712-.211,14.837,0,18.549.171,3.6.993,6.792,3.632,9.42s5.819,3.451,9.42,3.632c3.712.211,14.837.211,18.549,0,3.6-.171,6.792-.993,9.42-3.632s3.451-5.819,3.632-9.42c.211-3.712.211-14.827,0-18.539Zm-4.8,22.522a7.587,7.587,0,0,1-4.274,4.274c-2.959,1.174-9.982.9-13.252.9s-10.3.261-13.252-.9a7.587,7.587,0,0,1-4.274-4.274c-1.174-2.959-.9-9.982-.9-13.252s-.261-10.3.9-13.252a7.587,7.587,0,0,1,4.274-4.274c2.959-1.174,9.982-.9,13.252-.9s10.3-.261,13.252.9a7.587,7.587,0,0,1,4.274,4.274c1.174,2.959.9,9.982.9,13.252S41.114,64.607,39.94,67.557Z" transform="translate(0.075 -31.825)"/>
</svg>
